<svg xmlns="http://www.w3.org/2000/svg" width="760" height="183" viewBox="0 0 760 183" font-family="system-ui, -apple-system, sans-serif">
<rect width="760" height="183" fill="#fcfcfb" stroke="#e0dedb"/>
<text x="20" y="28" font-size="14" font-weight="600" fill="#0b0b0b">Shadow-vIOMMU guest, real NVMe: 2MB restore (hugepage buffers)</text>
<defs><pattern id="tex" width="6" height="6" patternUnits="userSpaceOnUse" patternTransform="rotate(45)"><rect width="6" height="6" fill-opacity="0"/><line x1="0" y1="0" x2="0" y2="6" stroke="#fcfcfb" stroke-width="2.5"/></pattern></defs>
<line x1="190.0" y1="56" x2="190.0" y2="153" stroke="#eceae6"/>
<text x="190.0" y="169" font-size="10" fill="#52514e" text-anchor="middle">0</text>
<line x1="327.1" y1="56" x2="327.1" y2="153" stroke="#eceae6"/>
<text x="327.1" y="169" font-size="10" fill="#52514e" text-anchor="middle">2,000</text>
<line x1="464.3" y1="56" x2="464.3" y2="153" stroke="#eceae6"/>
<text x="464.3" y="169" font-size="10" fill="#52514e" text-anchor="middle">4,000</text>
<line x1="601.4" y1="56" x2="601.4" y2="153" stroke="#eceae6"/>
<text x="601.4" y="169" font-size="10" fill="#52514e" text-anchor="middle">6,000</text>
<text x="430" y="181" font-size="10" fill="#52514e" text-anchor="middle">MiB/s</text>
<text x="182" y="73.5" font-size="11" fill="#0b0b0b" text-anchor="end">kbase (stock defaults)</text>
<path d="M190.0,62.0 h17.3 a4,4 0 0 1 4,4 v7 a4,4 0 0 1 -4,4 h-17.3 z" fill="#2a78d6"/>
<text x="217.3" y="73.5" font-size="10.5" fill="#52514e">311</text>
<text x="182" y="102.5" font-size="11" fill="#0b0b0b" text-anchor="end">kopt (series + sysfs opt-in)</text>
<path d="M190.0,91.0 h416.5 a4,4 0 0 1 4,4 v7 a4,4 0 0 1 -4,4 h-416.5 z" fill="#2a78d6"/>
<text x="616.5" y="102.5" font-size="10.5" fill="#52514e">6,132</text>
<text x="659.5" y="102.5" font-size="10.5" font-weight="600" fill="#0b0b0b">+1872%</text>
<text x="182" y="131.5" font-size="11" fill="#0b0b0b" text-anchor="end">krfc (RFC, stock defaults)</text>
<path d="M190.0,120.0 h412.2 a4,4 0 0 1 4,4 v7 a4,4 0 0 1 -4,4 h-412.2 z" fill="#2a78d6"/>
<text x="612.2" y="131.5" font-size="10.5" fill="#52514e">6,070</text>
<text x="655.2" y="131.5" font-size="10.5" font-weight="600" fill="#0b0b0b">+1852%, zero config</text>
<line x1="190" y1="56" x2="190" y2="153" stroke="#52514e"/>
</svg>