<svg xmlns="http://www.w3.org/2000/svg" width="760" height="183" viewBox="0 0 760 183" font-family="system-ui, -apple-system, sans-serif">
<rect width="760" height="183" fill="#fcfcfb" stroke="#e0dedb"/>
<text x="20" y="28" font-size="14" font-weight="600" fill="#0b0b0b">4K reader p99 latency vs a 2MB restore storm (ms)</text>
<defs><pattern id="tex" width="6" height="6" patternUnits="userSpaceOnUse" patternTransform="rotate(45)"><rect width="6" height="6" fill-opacity="0"/><line x1="0" y1="0" x2="0" y2="6" stroke="#fcfcfb" stroke-width="2.5"/></pattern></defs>
<line x1="190.0" y1="56" x2="190.0" y2="153" stroke="#eceae6"/>
<text x="190.0" y="169" font-size="10" fill="#52514e" text-anchor="middle">0</text>
<line x1="310.0" y1="56" x2="310.0" y2="153" stroke="#eceae6"/>
<text x="310.0" y="169" font-size="10" fill="#52514e" text-anchor="middle">3</text>
<line x1="430.0" y1="56" x2="430.0" y2="153" stroke="#eceae6"/>
<text x="430.0" y="169" font-size="10" fill="#52514e" text-anchor="middle">6</text>
<line x1="550.0" y1="56" x2="550.0" y2="153" stroke="#eceae6"/>
<text x="550.0" y="169" font-size="10" fill="#52514e" text-anchor="middle">9</text>
<line x1="670.0" y1="56" x2="670.0" y2="153" stroke="#eceae6"/>
<text x="670.0" y="169" font-size="10" fill="#52514e" text-anchor="middle">12</text>
<text x="430" y="181" font-size="10" fill="#52514e" text-anchor="middle">p99 (ms) — lower is better</text>
<text x="182" y="73.5" font-size="11" fill="#0b0b0b" text-anchor="end">baseline, shared device</text>
<path d="M190.0,62.0 h180.8 a4,4 0 0 1 4,4 v7 a4,4 0 0 1 -4,4 h-180.8 z" fill="#2a78d6"/>
<text x="380.8" y="73.5" font-size="10.5" fill="#52514e">4.62</text>
<text x="182" y="102.5" font-size="11" fill="#0b0b0b" text-anchor="end">opt-in, shared device</text>
<path d="M190.0,91.0 h439.2 a4,4 0 0 1 4,4 v7 a4,4 0 0 1 -4,4 h-439.2 z" fill="#eb6834"/>
<text x="639.2" y="102.5" font-size="10.5" fill="#52514e">11.08</text>
<text x="682.2" y="102.5" font-size="10.5" font-weight="600" fill="#0b0b0b">+140%</text>
<text x="182" y="131.5" font-size="11" fill="#0b0b0b" text-anchor="end">opt-in, separate device</text>
<rect x="190.0" y="120.0" width="6.6" height="15" fill-opacity="1" fill="#eb6834"/>
<rect x="190.0" y="120.0" width="6.6" height="15" fill-opacity="1" fill="url(#tex)"/>
<text x="202.6" y="131.5" font-size="10.5" fill="#52514e">0.165</text>
<text x="245.6" y="131.5" font-size="10.5" font-weight="600" fill="#0b0b0b">−96% vs base</text>
<line x1="190" y1="56" x2="190" y2="153" stroke="#52514e"/>
</svg>